<svg id="crown-ella" xmlns="http://www.w3.org/2000/svg" width="39.086" height="36.04" viewBox="0 0 39.086 36.04">
  <path id="Path_8655" data-name="Path 8655" d="M57.753,361.029H42.421a3.009,3.009,0,0,1-2.255-1.143l-2.048-2.8a1.531,1.531,0,0,1,1.279-2.521h3.582a1.566,1.566,0,0,0,.709-.258l4.68-3.933-6.68-5.621-5.251,10.36a1.391,1.391,0,0,1-2.7-.414l-3.16-18.96a1.42,1.42,0,0,1,2.4-1.366h0l7.964,6.7,7.678-15.147a1.531,1.531,0,0,1,2.827,0L59.2,341.273l8-6.723a1.423,1.423,0,0,1,2.4,1.364l-3.109,19.191a1.389,1.389,0,0,1-2.7.418l-5.348-10.572-6.459,5.428,4.672,3.931a1.553,1.553,0,0,0,.708.259h3.466a1.526,1.526,0,0,1,1.267,2.524L60.007,359.9A3.031,3.031,0,0,1,57.753,361.029ZM40.869,356.9l1.178,1.608a.787.787,0,0,0,.378.19H57.753a.81.81,0,0,0,.389-.2l1.2-1.6H57.37a3.8,3.8,0,0,1-2.209-.806L50.178,351.9l-4.99,4.194a3.805,3.805,0,0,1-2.209.805ZM60.283,343.41l4.35,8.6,2.3-14.186ZM33.26,337.666l2.328,13.965,4.267-8.417Zm9.509,4.954,7.41,6.235,7.189-6.041L50.028,328.3Zm-10.547-7.351-.751.891h0Z" transform="translate(-30.545 -324.989)" opacity="0.421"/>
</svg>
